<svg xmlns="http://www.w3.org/2000/svg" width="425" height="121" fill="none"><path fill="#B98960" stroke="#000" d="M100.19 7.184 70.063 23.067c-.761.4-.694 1.513.11 1.819l45.656 17.38c.313.119.665.073.938-.122l12.406-8.867 11.375-8.13a1 1 0 0 0-.199-1.738l-39.31-16.265a1 1 0 0 0-.849.04Z"/><path fill="#B98960" stroke="#000" d="m.926 24.616 15.148 17.33a1 1 0 0 0 1.085.285l51.872-18.257a1 1 0 0 0 .513-1.479L56.346 1.703a1 1 0 0 0-1.218-.391L1.304 23.03a1 1 0 0 0-.378 1.585Z"/><path fill="#7A532B" stroke="#000" d="m68.22 24.561-51.7 17.866 51.7 19.713 47.851-19.713z"/><path fill="#000" stroke="#000" d="M41.979 24.63q.079-.2.117-.411l2.53-14.51c.283-1.626 2.301-2.229 3.43-1.024l5.576 5.953a2 2 0 0 0 1.46.633h20.611a2 2 0 0 0 1.376-.548l7.489-7.098c1.195-1.133 3.17-.416 3.362 1.22l5.14 44.03c.034.295.133.578.29.83l12.501 19.994q.111.177.184.376l8.444 23.177a2 2 0 0 1-1.176 2.557l-18.48 6.941a2 2 0 0 1-.704.127H68.447l-17.68-2.434a2 2 0 0 1-1.71-1.722l-5.43-41.438a2 2 0 0 0-.097-.407l-2.613-7.389a2 2 0 0 1-.087-.336l-1.657-9.882a2 2 0 0 1-.028-.33v-8.24q0-.224.05-.442c.267-1.139 1.553-6.52 2.783-9.627Z"/><path fill="#fff" fill-rule="evenodd" d="M77.092 38.344c-3.425.22-6.438-2.805-7.002-6.904l-.003-.046 13.162-1.002c-.002 4.164-2.596 7.64-6.028 7.942zM53.895 38.153c-3.415-.28-6.019-3.707-6.07-7.844l.003-.046 13.168.89c-.517 4.121-3.51 7.193-6.943 7.01z" clip-rule="evenodd"/><ellipse cx="1.554" cy="2.139" fill="#000" rx="1.554" ry="2.139" transform="matrix(.98322 -.20009 .0923 1.00023 74.698 31.976)"/><ellipse cx="1.554" cy="2.139" fill="#000" rx="1.554" ry="2.139" transform="matrix(.98322 -.20009 .0923 1.00023 52.458 31.976)"/><ellipse cx="64.938" cy="40.219" fill="#D9D9D9" rx="2.866" ry="1.342"/><path fill="#B98960" stroke="#000" d="M68.106 61.995 16.52 42.456v58.006L68.106 120z"/><path fill="#B98960" stroke="#000" d="M116.675 99.691V42.456L68.105 62.15V120z"/><path fill="#fff" stroke="#CFCFCF" stroke-width="2" d="M64.787 67 48.8 60.947v14.527l15.988 6.052z"/><path fill="#000" d="M52.77 66.497q.662.223.751.738.095.513-.15 1.216a6 6 0 0 1-.326.798q-.15.287-.323.397a.44.44 0 0 1-.399.04.38.38 0 0 1-.219-.176.6.6 0 0 1-.075-.27.6.6 0 0 1 .034-.246l-.016-.005q-.28.32-.647.195-.295-.099-.352-.376-.056-.28.083-.681.169-.487.441-.666.279-.18.639-.06.14.048.251.12.11.07.235.2l-.387 1.12q-.096.28-.066.412a.24.24 0 0 0 .16.172q.11.038.207-.082.101-.122.187-.334.087-.215.222-.605.148-.43.187-.738a.9.9 0 0 0-.075-.54q-.118-.235-.456-.348a1.3 1.3 0 0 0-.454-.069 1.4 1.4 0 0 0-.526.127l-.112-.278q.32-.129.62-.138.3-.012.565.077m-.629 1.143q-.25-.084-.41.06t-.293.53q-.104.3-.093.488.013.186.175.24.121.042.216.014a.4.4 0 0 0 .154-.079q.06-.052.136-.135l.34-.983a.6.6 0 0 0-.225-.135m2.275 2.108q.26.09.58.001l.079.26a1 1 0 0 1-.371.069 1.2 1.2 0 0 1-.382-.058q-.443-.15-.599-.51-.15-.361.014-.834.103-.3.295-.5a.95.95 0 0 1 .456-.265.97.97 0 0 1 .551.034q.387.13.586.46l-.227.155a.97.97 0 0 0-.456-.348.56.56 0 0 0-.501.055q-.227.142-.36.525-.131.381-.037.624.099.24.372.332m2.752-1.086q.413.14.536.493.129.35-.037.832-.162.468-.49.679-.32.208-.73.07-.414-.14-.542-.49-.126-.355.04-.835.162-.473.484-.681.325-.206.739-.068m-.09.26q-.262-.087-.457.062-.195.15-.332.543-.135.393-.077.628.063.233.325.32.261.09.452-.058.195-.15.333-.547.135-.393.072-.625-.058-.235-.316-.322m1.884 2.357q.26.09.58.001l.079.26a1.161 1.161 0 0 1-.753.012q-.444-.15-.599-.51-.15-.363.014-.835.103-.3.295-.5a.95.95 0 0 1 .456-.265.97.97 0 0 1 .55.034q.388.13.587.46l-.227.155a.97.97 0 0 0-.456-.348.56.56 0 0 0-.501.055q-.227.142-.36.525-.131.382-.037.624.099.24.372.332m2.752-1.086q.413.14.536.493.129.35-.038.832-.162.468-.488.68-.322.207-.731.07-.414-.14-.542-.491-.126-.355.04-.835.163-.472.484-.681.325-.207.739-.068m-.09.261q-.262-.088-.457.061-.195.15-.332.543-.135.393-.077.628.063.233.325.32.261.09.452-.058.195-.15.333-.547.135-.393.072-.625-.06-.235-.316-.322"/><path fill="#DBC5AE" d="M85.904 86.597 84.85 55.579l16.139-6.561V80.87l-2.02-1.431-.539 2.326-1.885-1.432-.808 2.685-2.155-1.253-1.078 2.326-2.154-1.073-1.078 2.326-1.75-1.253z"/><path stroke="#D1AF93" d="m93.748 82.123-.905-29.377"/><path fill="#000" d="M176.124 50.804q-1.9-2.128-4.636-3.268-2.66-1.215-6.004-1.216-3.268 0-5.776 1.596-2.508 1.52-3.952 4.332-1.368 2.812-1.368 6.536t1.368 6.536q1.444 2.812 3.952 4.408t5.776 1.596q3.496 0 6.308-1.216a11.3 11.3 0 0 0 4.636-3.648l6.156 5.016q-2.66 3.724-7.144 5.852-4.484 2.052-10.412 2.052-6.08 0-10.716-2.584-4.637-2.66-7.296-7.22-2.584-4.636-2.584-10.792t2.584-10.792q2.66-4.635 7.296-7.22 4.637-2.66 10.716-2.66 5.7 0 10.032 1.9 4.332 1.824 7.144 5.168zm31.23-12.692q6.308 0 11.096 2.584 4.864 2.585 7.524 7.22 2.736 4.636 2.736 10.792T225.974 69.5q-2.66 4.636-7.524 7.296-4.788 2.584-11.096 2.584-6.384 0-11.248-2.584-4.864-2.66-7.6-7.296-2.66-4.636-2.66-10.792t2.66-10.792q2.736-4.635 7.6-7.22t11.248-2.584m0 7.98q-3.42 0-6.08 1.672-2.584 1.596-4.028 4.484-1.444 2.812-1.444 6.536 0 3.8 1.444 6.688t4.028 4.484q2.66 1.596 6.08 1.596 3.344 0 5.928-1.596t4.028-4.484 1.444-6.688q0-3.724-1.444-6.536-1.444-2.888-4.028-4.484-2.585-1.672-5.928-1.672m57.907 4.712q-1.9-2.128-4.636-3.268-2.66-1.215-6.004-1.216-3.268 0-5.776 1.596-2.509 1.52-3.952 4.332-1.368 2.812-1.368 6.536t1.368 6.536q1.443 2.812 3.952 4.408t5.776 1.596q3.495 0 6.308-1.216a11.3 11.3 0 0 0 4.636-3.648l6.156 5.016q-2.66 3.724-7.144 5.852-4.484 2.052-10.412 2.052-6.081 0-10.716-2.584-4.637-2.66-7.296-7.22-2.584-4.636-2.584-10.792t2.584-10.792q2.66-4.635 7.296-7.22 4.635-2.66 10.716-2.66 5.7 0 10.032 1.9 4.332 1.824 7.144 5.168zm31.23-12.692q6.308 0 11.096 2.584 4.863 2.585 7.524 7.22 2.736 4.636 2.736 10.792T315.111 69.5q-2.661 4.636-7.524 7.296-4.788 2.584-11.096 2.584-6.385 0-11.248-2.584-4.864-2.66-7.6-7.296-2.66-4.636-2.66-10.792t2.66-10.792q2.736-4.635 7.6-7.22t11.248-2.584m0 7.98q-3.42 0-6.08 1.672-2.585 1.596-4.028 4.484-1.444 2.812-1.444 6.536 0 3.8 1.444 6.688t4.028 4.484q2.66 1.596 6.08 1.596 3.343 0 5.928-1.596 2.583-1.596 4.028-4.484 1.443-2.888 1.444-6.688 0-3.724-1.444-6.536-1.445-2.888-4.028-4.484-2.585-1.672-5.928-1.672m53.65.988q-4.255-.304-7.372 1.292-3.115 1.52-4.788 4.408-1.671 2.888-1.672 6.612l-2.66-.304q0-6.765 1.976-11.4 1.977-4.712 5.7-7.144 3.725-2.432 8.816-2.432zm-23.712-8.588h9.88V79h-9.88zm30.653 0h9.88V79h-9.88zm4.864-17.252q2.432 0 4.028 1.596t1.596 4.028q0 2.355-1.596 4.028-1.596 1.596-4.028 1.596-2.356 0-3.952-1.596-1.596-1.672-1.596-4.028 0-2.432 1.596-4.028t3.952-1.596m54.417 53.808q0 5.851-2.66 10.108-2.584 4.256-7.372 6.536-4.788 2.355-11.248 2.356-4.94 0-9.272-1.444a33.7 33.7 0 0 1-7.904-3.876l3.952-6.764a24 24 0 0 0 5.928 3.192q3.116 1.14 6.764 1.14t6.308-1.368q2.736-1.368 4.18-3.8t1.444-5.776v-36.86h9.88zm-23.104-36.936q5.244-.075 8.968 2.28t5.7 6.688 1.9 10.412q.076 6.08-1.9 10.488-1.9 4.332-5.548 6.688t-8.816 2.356q-5.396 0-9.5-2.432-4.028-2.508-6.308-6.916-2.28-4.485-2.28-10.26 0-5.776 2.204-10.032 2.28-4.332 6.308-6.764 4.028-2.508 9.272-2.508m2.432 7.524q-3.116 0-5.624 1.52-2.432 1.52-3.8 4.256t-1.444 6.232q.076 3.496 1.444 6.232t3.8 4.256 5.624 1.52 5.624-1.52 3.8-4.256 1.368-6.232q0-3.572-1.368-6.232-1.368-2.736-3.8-4.256t-5.624-1.52"/></svg>